<svg height='300px' width='300px'  fill="#003BAB" xmlns="http://www.w3.org/2000/svg" xmlns:xlink="http://www.w3.org/1999/xlink" version="1.1" x="0px" y="0px" viewBox="0 0 74.4 100" enable-background="new 0 0 74.4 100" xml:space="preserve"><path d="M8.9,14.4C9.8,7.5,18.1,6,21.8,7.6c2.2-7.9,12.5-6.9,15.7-2.9C42.8-2.6,56.4-0.8,59,6.3c5.2,0.3,5.9,4.9,5.4,6.3  c6,1.7,7.4,6.7,6.9,10.5c-4.9-2.5-17.1-6.8-33.1-6.8c-20,0-31.2,4.7-35.1,6.2C1.7,18.4,6.2,14.2,8.9,14.4z M56.5,97.3  c-9.9-3-28.7-3.3-38.5,0c-9.5,3.2-18.8,4.4-17.9-1.6c1-7,4.4-11.1,4.4-14.1c0-3,0-48.8,0-48.8s-4.4-6.5,0.5-8.6  c5.7-2.4,18.9-5.7,32.9-5.7c13.6,0,28.7,3.7,33,6.8c3.2,2.3-0.5,7.5-0.5,7.5s0,44.4,0,48.8c0,4.4,2.6,6.3,4,14.1  C75.5,102.8,61.7,98.9,56.5,97.3z M50.7,51.8c-1.2,1.2-4.1,0.2-6.5-2.2c-2.4-2.4-3.3-5.3-2.1-6.5l-21,20.6c-1.2,1.2-0.3,4.1,2.1,6.5  c2.4,2.4,5.3,3.4,6.5,2.2L50.7,51.8z M49.7,44.2c-2.4-2.4-5.3-3.4-6.5-2.2c-1.2,1.2-0.3,4.1,2.1,6.5c2.4,2.4,5.3,3.4,6.5,2.2  C53,49.5,52.1,46.6,49.7,44.2z"></path></svg>