<?xml version="1.0" standalone="no"?>
<!DOCTYPE svg PUBLIC "-//W3C//DTD SVG 20010904//EN"
 "http://www.w3.org/TR/2001/REC-SVG-20010904/DTD/svg10.dtd">
<svg version="1.0" xmlns="http://www.w3.org/2000/svg"
 width="700.000000pt" height="700.000000pt" viewBox="0 0 700.000000 700.000000"
 preserveAspectRatio="xMidYMid meet">
<metadata>
Created by potrace 1.11, written by Peter Selinger 2001-2013
</metadata>
<g transform="translate(0.000000,700.000000) scale(0.100000,-0.100000)"
fill="#000000" stroke="none">
<path d="M4115 6993 c-209 -23 -410 -120 -542 -261 l-52 -55 -40 36 c-168 152
-459 211 -686 140 -157 -49 -283 -159 -339 -296 -38 -92 -32 -88 -108 -67 -66
18 -227 21 -303 6 -274 -57 -469 -226 -514 -447 l-12 -57 -44 -5 c-134 -15
-301 -166 -356 -321 -25 -73 -30 -192 -10 -225 10 -15 16 -13 201 59 74 29
348 116 430 136 8 2 60 15 115 29 282 71 709 142 971 160 49 4 100 9 114 11
113 18 826 25 1035 10 146 -10 192 -14 243 -21 23 -3 63 -7 90 -10 46 -6 72
-9 150 -20 47 -7 209 -34 242 -40 141 -27 174 -34 345 -75 231 -55 566 -168
748 -253 48 -22 90 -38 93 -35 2 3 5 42 5 86 1 233 -94 421 -271 541 -55 37
-170 91 -194 91 -10 0 -15 24 -18 88 -10 197 -133 326 -342 357 -22 3 -40 7
-40 8 -1 1 -10 20 -21 42 -92 187 -292 319 -570 375 -57 12 -256 19 -320 13z"/>
<path d="M3367 5704 c-1 -1 -65 -5 -142 -9 -77 -4 -156 -8 -175 -10 -20 -1
-75 -6 -124 -10 -49 -4 -98 -8 -110 -10 -11 -2 -48 -6 -81 -10 -33 -3 -67 -8
-75 -10 -8 -2 -40 -7 -70 -10 -30 -3 -66 -7 -80 -10 -14 -2 -79 -13 -145 -25
-66 -11 -133 -23 -150 -26 -16 -3 -39 -7 -50 -9 -11 -1 -56 -10 -100 -20 -67
-14 -117 -26 -296 -69 -166 -41 -498 -152 -554 -187 -155 -93 -171 -260 -49
-501 l44 -88 0 -1733 0 -1733 -29 -90 c-16 -50 -42 -117 -56 -150 -108 -238
-163 -397 -200 -580 -32 -156 -32 -206 0 -270 37 -74 110 -115 235 -132 63 -9
222 -8 286 2 191 30 235 39 434 92 30 8 62 16 70 18 8 2 65 20 125 39 140 45
252 78 285 83 14 3 32 7 40 9 8 2 29 7 45 10 17 2 41 7 55 10 32 7 216 35 255
39 17 2 55 7 85 10 30 4 87 9 125 11 39 2 115 7 170 11 121 8 532 8 670 0 230
-14 244 -15 417 -36 151 -18 171 -21 258 -37 47 -8 96 -17 110 -19 14 -3 32
-7 40 -9 8 -2 31 -7 50 -10 19 -3 49 -10 65 -15 274 -88 624 -172 820 -196 89
-11 242 -12 294 -2 25 5 56 10 68 13 39 7 120 56 141 84 29 40 44 104 38 163
-16 140 -82 363 -175 592 -33 80 -70 185 -82 233 l-23 88 -1 1749 -1 1749 52
103 c98 194 97 330 -4 420 -97 88 -400 204 -760 293 -87 22 -174 42 -193 45
-20 3 -42 8 -50 10 -15 6 -13 6 -214 40 -125 22 -185 31 -265 42 -14 2 -50 6
-80 9 -30 3 -66 8 -80 10 -14 3 -56 7 -95 11 -38 3 -86 7 -105 9 -117 12 -654
27 -663 19z m773 -1638 c203 -80 406 -322 415 -493 13 -232 -270 -199 -510 60
-121 130 -185 287 -153 378 11 32 56 75 83 81 35 8 109 -3 165 -26z m-326
-128 c-51 -159 142 -440 382 -559 60 -29 79 -34 144 -34 l75 0 -210 -206
c-115 -114 -260 -256 -321 -315 -61 -60 -292 -287 -513 -504 -221 -217 -414
-401 -428 -408 -88 -47 -271 27 -413 167 -139 136 -213 298 -187 407 8 32 101
128 477 495 308 300 915 896 954 936 23 24 42 43 44 43 2 0 0 -10 -4 -22z"/>
</g>
</svg>
